<svg xmlns="http://www.w3.org/2000/svg" width="64" height="64" viewBox="0 0 64 64" fill="none">
  <circle cx="32" cy="32" r="30" fill="url(#telegramGradient)"/>
  <path d="M49.2 18.2 14.4 31.4c-1.8.7-1.7 3.2.2 3.8l8.8 2.6 3.4 10.1c.6 1.8 3 2.1 4.1.5l4.8-6.4 9.1 6.7c1.6 1.2 3.9.3 4.3-1.7L53.6 22c.4-2.4-2.1-4.6-4.4-3.8Z" fill="#fff"/>
  <path d="M25.1 37.2 44 25.1c.7-.4 1.4.5.8 1L29.7 40.3l-.6 6.4-4-9.5Z" fill="#C9E7F8"/>
  <defs>
    <linearGradient id="telegramGradient" x1="19" y1="7" x2="46" y2="57" gradientUnits="userSpaceOnUse">
      <stop stop-color="#38BDF8"/>
      <stop offset="1" stop-color="#1D9BD7"/>
    </linearGradient>
  </defs>
</svg>
